<svg width="524" height="44" viewBox="0 0 524 44" fill="none" xmlns="http://www.w3.org/2000/svg">
<path d="M32.967 16.6515H35.715V27.7944H32.967V16.6515ZM36.8108 23.6029C36.8108 20.8429 38.5229 19.1887 41.0911 19.1887C43.6592 19.1887 45.3714 20.8429 45.3714 23.6029C45.3714 26.3629 43.7192 28.0344 41.0911 28.0344C38.463 28.0344 36.8108 26.4229 36.8108 23.6029ZM42.6491 23.6029C42.6491 22.0858 42.0584 21.1944 41.1167 21.1944C40.1751 21.1944 39.593 22.0515 39.593 23.6029C39.593 25.1544 40.1751 26.0029 41.1167 26.0029C42.0584 26.0029 42.6662 25.1544 42.6662 23.6115L42.6491 23.6029ZM46.4671 28.3687H49.1209C49.2417 28.6547 49.4527 28.8934 49.7217 29.0481C49.9907 29.2029 50.3028 29.2653 50.6105 29.2258C51.6634 29.2258 52.2113 28.6601 52.2113 27.8201V26.2772H52.2198C51.9931 26.7577 51.6263 27.158 51.168 27.4258C50.7096 27.6936 50.181 27.8161 49.6517 27.7772C47.6399 27.7772 46.3045 26.2429 46.3045 23.6029C46.3045 20.9629 47.58 19.3172 49.7287 19.3172C50.2715 19.2882 50.8101 19.4283 51.27 19.7185C51.7299 20.0086 52.0887 20.4344 52.2969 20.9372H52.2198V19.3858H54.9421V27.7344C54.9421 29.7487 53.1615 31.0087 50.542 31.0087C48.1621 31.0001 46.6383 29.9115 46.4842 28.3772L46.4671 28.3687ZM52.2198 23.6029C52.2198 22.2572 51.6035 21.4087 50.6276 21.4087C49.6517 21.4087 49.0524 22.2658 49.0524 23.6029C49.0524 24.9401 49.6431 25.7287 50.6276 25.7287C51.612 25.7287 52.2198 25.0001 52.2198 23.6029ZM56.0293 23.6029C56.0293 20.8429 57.7414 19.1887 60.3096 19.1887C62.8778 19.1887 64.5899 20.8429 64.5899 23.6029C64.5899 26.3629 62.9292 28.0344 60.3096 28.0344C57.6901 28.0344 56.0464 26.4229 56.0464 23.6029H56.0293ZM61.8676 23.6029C61.8676 22.0858 61.2684 21.1944 60.3353 21.1944C59.4022 21.1944 58.8115 22.0515 58.8115 23.6029C58.8115 25.1544 59.3936 26.0029 60.3353 26.0029C61.277 26.0029 61.8848 25.1544 61.8848 23.6115L61.8676 23.6029ZM65.7028 17.3544C65.6908 17.0741 65.7629 16.7966 65.9097 16.5577C66.0565 16.3188 66.2714 16.1293 66.5267 16.0137C66.782 15.898 67.0659 15.8615 67.3421 15.9088C67.6182 15.956 67.8739 16.0849 68.0763 16.2789C68.2787 16.473 68.4185 16.7231 68.4777 16.9973C68.5369 17.2715 68.5128 17.5572 68.4086 17.8175C68.3043 18.0779 68.1246 18.3011 67.8926 18.4584C67.6606 18.6157 67.3869 18.6998 67.1067 18.7001C66.9277 18.7046 66.7495 18.6735 66.5826 18.6086C66.4156 18.5437 66.2632 18.4461 66.1342 18.3217C66.0052 18.1974 65.9021 18.0486 65.831 17.8839C65.7599 17.7193 65.7221 17.5423 65.7199 17.3629L65.7028 17.3544ZM65.7028 19.3772H68.485V27.8287H65.7456L65.7028 19.3772ZM78.4923 23.6029C78.4923 26.3544 77.2596 27.9487 75.1623 27.9487C74.6254 27.9818 74.0912 27.8491 73.6319 27.5687C73.1726 27.2881 72.8104 26.8733 72.5941 26.3801H72.5427V30.5458H69.7948V19.4029H72.5256V20.9115H72.577C72.7858 20.4086 73.1445 19.9824 73.6041 19.6909C74.0637 19.3995 74.6018 19.2571 75.1451 19.2829C77.3024 19.2658 78.5437 20.8515 78.5437 23.6115L78.4923 23.6029ZM75.693 23.6029C75.693 22.2658 75.0681 21.4001 74.1008 21.4001C73.1334 21.4001 72.5256 22.2572 72.517 23.6029C72.5085 24.9487 73.1334 25.7972 74.1008 25.7972C75.0681 25.7972 75.7444 25.0001 75.7444 23.6115L75.693 23.6029ZM83.1836 19.1801C85.4864 19.1801 86.916 20.2687 86.9331 22.0172H84.4249C84.4249 21.4087 83.9198 21.0315 83.1664 21.0315C82.4131 21.0315 82.0536 21.3229 82.0536 21.7601C82.0536 22.1972 82.3703 22.3344 83.0038 22.4629L84.7673 22.8229C86.4794 23.1829 87.1642 23.8687 87.1642 25.1458C87.1642 26.8601 85.5805 28.0258 83.2264 28.0258C80.8722 28.0258 79.3398 26.8944 79.2286 25.1715H81.8909C81.968 25.7972 82.4645 26.1658 83.2692 26.1658C84.0739 26.1658 84.4505 25.9087 84.4505 25.4544C84.4505 25.0001 84.1937 24.9229 83.5345 24.7858L81.9423 24.4515C80.2901 24.1001 79.4255 23.2344 79.4255 21.9401C79.4768 20.2601 80.915 19.1887 83.2349 19.1887L83.1836 19.1801ZM96.3669 27.8201H93.7045V26.2344H93.6532C93.5042 26.7633 93.1798 27.2256 92.7329 27.5449C92.2861 27.8644 91.7442 28.0219 91.1963 27.9915C90.7828 28.005 90.3702 27.9307 89.9875 27.7735C89.6049 27.6164 89.259 27.3799 88.9739 27.0797C88.688 26.7793 88.4697 26.422 88.3319 26.0311C88.1941 25.6403 88.1402 25.2246 88.1744 24.8115V19.3858H90.9223V24.2201C90.9223 25.2144 91.4445 25.7544 92.3006 25.7544C92.5018 25.7528 92.6995 25.7082 92.8819 25.6235C93.0642 25.5387 93.226 25.4158 93.3561 25.2631C93.4871 25.1103 93.5838 24.9313 93.6395 24.7381C93.6943 24.5448 93.708 24.3419 93.6789 24.1429V19.3858H96.4183L96.3669 27.8201ZM97.6938 19.3772H100.365V21.0058H100.425C100.572 20.4841 100.889 20.0261 101.323 19.7035C101.759 19.3809 102.289 19.2119 102.83 19.2229C103.374 19.1756 103.916 19.333 104.349 19.6643C104.783 19.9956 105.077 20.477 105.176 21.0144H105.296C105.467 20.4741 105.811 20.0056 106.276 19.6817C106.74 19.3577 107.299 19.1965 107.864 19.2229C108.24 19.2086 108.615 19.2739 108.963 19.4146C109.312 19.5552 109.627 19.768 109.888 20.0391C110.149 20.3101 110.35 20.6334 110.477 20.9875C110.606 21.3417 110.657 21.7189 110.629 22.0944V27.8287H107.864V22.7972C107.864 21.9401 107.461 21.4601 106.682 21.4601C106.509 21.4573 106.338 21.4919 106.18 21.5615C106.022 21.6312 105.881 21.7343 105.766 21.8637C105.652 21.9932 105.566 22.1459 105.516 22.3115C105.466 22.4771 105.452 22.6515 105.475 22.8229V27.8287H102.856V22.7715C102.856 21.9144 102.436 21.4601 101.683 21.4601C101.508 21.4587 101.335 21.4947 101.176 21.5657C101.016 21.6367 100.874 21.7411 100.758 21.8718C100.642 22.0025 100.556 22.1565 100.504 22.3235C100.452 22.4905 100.437 22.6667 100.459 22.8401V27.8287H97.7109L97.6938 19.3772Z" fill="#B4B7C9"/>
<path d="M27.5308 17.3801C27.5309 15.6741 27.0164 14.0079 26.0547 12.5997C25.093 11.1914 23.7289 10.1069 22.1412 9.488C20.5534 8.86913 18.816 8.74485 17.1565 9.13141C15.4969 9.51797 13.9928 10.3974 12.8408 11.6544H2.15723V34.2315H24.7144V23.6801C25.5997 22.8873 26.3082 21.9164 26.7935 20.8308C27.2788 19.7452 27.5301 18.5695 27.5308 17.3801ZM23.1906 17.3801C23.1923 18.1976 22.9518 18.9972 22.4994 19.6778C22.047 20.3583 21.4033 20.8892 20.6494 21.2031C19.8956 21.5172 19.0657 21.6003 18.2647 21.4418C17.4637 21.2834 16.7277 20.8905 16.1498 20.3131C15.5719 19.7356 15.1781 18.9995 15.0182 18.1978C14.8582 17.3962 14.9395 16.5651 15.2515 15.8097C15.5635 15.0542 16.0924 14.4085 16.7711 13.9541C17.4499 13.4998 18.248 13.2573 19.0644 13.2573C20.1573 13.2573 21.2055 13.6914 21.979 14.4643C22.7527 15.2372 23.1884 16.2859 23.1906 17.3801ZM20.3742 29.8858H6.49745V16.0001H10.7264C10.6447 16.4557 10.6017 16.9173 10.598 17.3801C10.6003 19.6277 11.493 21.7826 13.0803 23.3719C14.6675 24.9611 16.8196 25.855 19.0644 25.8573C19.5033 25.8549 19.9413 25.8177 20.3742 25.7458V29.8858Z" fill="#B4B7C9"/>
<path d="M150.029 13.4766V9.97656H138.729V34.0236H150.029V30.5236C147.714 30.5236 145.494 29.6256 143.857 28.0271C142.22 26.4286 141.301 24.2607 141.301 22.0001C141.301 19.7395 142.22 17.5715 143.857 15.9731C145.494 14.3746 147.714 13.4766 150.029 13.4766Z" fill="#B4B7C9"/>
<path d="M150.029 13.4766V30.5236C152.343 30.5236 154.563 29.6256 156.2 28.0271C157.837 26.4286 158.757 24.2607 158.757 22.0001C158.757 19.7395 157.837 17.5715 156.2 15.9731C154.563 14.3746 152.343 13.4766 150.029 13.4766Z" fill="#B4B7C9"/>
<path d="M165.098 15.6177H167.628V27.5177H165.098V15.6177Z" fill="#B4B7C9"/>
<path d="M169.045 23.4411C169.045 22.585 169.305 21.7481 169.792 21.0366C170.28 20.325 170.973 19.7709 171.783 19.4444C172.594 19.1179 173.485 19.0337 174.345 19.2026C175.204 19.3714 175.993 19.7856 176.611 20.3927C177.229 20.9999 177.649 21.7726 177.817 22.6129C177.985 23.4532 177.894 24.3233 177.555 25.1129C177.216 25.9024 176.644 26.576 175.913 27.048C175.182 27.5201 174.323 27.7695 173.447 27.7646C172.865 27.7691 172.289 27.6601 171.751 27.444C171.213 27.228 170.725 26.9093 170.315 26.5067C169.905 26.104 169.581 25.6254 169.363 25.099C169.145 24.5726 169.037 24.0089 169.045 23.4411ZM175.386 23.4411C175.376 23.072 175.255 22.7139 175.038 22.4118C174.82 22.1095 174.517 21.8766 174.165 21.742C173.813 21.6074 173.428 21.5772 173.058 21.6552C172.689 21.7331 172.351 21.9157 172.087 22.1802C171.823 22.4446 171.645 22.7792 171.575 23.142C171.505 23.5049 171.546 23.8798 171.692 24.22C171.839 24.5602 172.086 24.8507 172.401 25.0548C172.716 25.2591 173.085 25.368 173.463 25.3682C173.721 25.3731 173.977 25.3261 174.215 25.2301C174.452 25.1341 174.668 24.9912 174.846 24.8104C175.025 24.6295 175.164 24.4145 175.254 24.179C175.344 23.9434 175.383 23.6922 175.369 23.4411H175.386Z" fill="#B4B7C9"/>
<path d="M187.858 19.3646V27.114C187.858 29.8481 185.666 31.0093 183.448 31.0093C182.666 31.072 181.881 30.9202 181.182 30.571C180.484 30.2218 179.899 29.6891 179.493 29.0328L181.627 27.8305C181.799 28.1709 182.074 28.4517 182.415 28.6356C182.755 28.8195 183.145 28.8978 183.532 28.8599C183.779 28.8895 184.029 28.8657 184.265 28.7899C184.501 28.714 184.717 28.5883 184.898 28.4214C185.078 28.2546 185.219 28.0509 185.309 27.8249C185.4 27.5989 185.438 27.3561 185.421 27.114V26.3646C185.127 26.7132 184.753 26.9899 184.33 27.1729C183.907 27.3559 183.446 27.44 182.984 27.4187C181.866 27.4187 180.794 26.9849 180.003 26.2127C179.212 25.4405 178.768 24.3931 178.768 23.3011C178.768 22.209 179.212 21.1617 180.003 20.3895C180.794 19.6173 181.866 19.1834 182.984 19.1834C183.446 19.1621 183.907 19.2463 184.33 19.4292C184.753 19.6122 185.127 19.8889 185.421 20.2375V19.414L187.858 19.3646ZM185.421 23.2764C185.438 22.8824 185.334 22.4924 185.122 22.1568C184.91 21.8211 184.6 21.555 184.232 21.3927C183.864 21.2304 183.455 21.1793 183.057 21.246C182.659 21.3127 182.29 21.4942 181.999 21.767C181.707 22.0398 181.506 22.3916 181.421 22.7771C181.336 23.1626 181.371 23.5641 181.521 23.9301C181.671 24.2961 181.93 24.6097 182.265 24.8308C182.599 25.0518 182.994 25.1701 183.397 25.1705C183.661 25.189 183.926 25.1533 184.174 25.0659C184.422 24.9783 184.649 24.8409 184.84 24.6624C185.031 24.4839 185.181 24.2683 185.281 24.0296C185.381 23.7908 185.429 23.5342 185.421 23.2764Z" fill="#B4B7C9"/>
<path d="M189.283 23.4412C189.283 22.5857 189.543 21.7495 190.03 21.0383C190.517 20.3271 191.209 19.773 192.018 19.446C192.828 19.119 193.718 19.0339 194.578 19.2014C195.437 19.3689 196.225 19.7815 196.844 20.3869C197.463 20.9925 197.884 21.7636 198.054 22.6028C198.224 23.442 198.135 24.3116 197.799 25.1015C197.462 25.8914 196.893 26.566 196.164 27.0401C195.435 27.5142 194.578 27.7664 193.702 27.7648C193.12 27.7703 192.542 27.6621 192.003 27.4467C191.463 27.2313 190.974 26.9129 190.562 26.5102C190.151 26.1075 189.825 25.6286 189.606 25.1016C189.386 24.5746 189.277 24.0101 189.283 23.4412ZM195.625 23.4412C195.615 23.0718 195.494 22.7134 195.276 22.411C195.058 22.1087 194.754 21.8757 194.402 21.7414C194.049 21.6071 193.664 21.5773 193.294 21.656C192.924 21.7345 192.586 21.918 192.323 22.1833C192.059 22.4485 191.882 22.7839 191.813 23.1472C191.744 23.5106 191.786 23.8858 191.934 24.2258C192.082 24.5659 192.33 24.8557 192.646 25.059C192.962 25.2621 193.332 25.3698 193.711 25.3683C193.968 25.3732 194.224 25.3262 194.462 25.2302C194.7 25.1342 194.915 24.9914 195.094 24.8105C195.273 24.6297 195.411 24.4146 195.501 24.1791C195.591 23.9435 195.631 23.6923 195.617 23.4412H195.625Z" fill="#B4B7C9"/>
<path d="M199.293 17.1824C199.293 16.8926 199.381 16.6091 199.546 16.368C199.711 16.127 199.946 15.9391 200.22 15.8281C200.494 15.7172 200.796 15.6882 201.087 15.7447C201.378 15.8013 201.646 15.9409 201.856 16.1459C202.066 16.3509 202.209 16.6121 202.267 16.8964C202.325 17.1808 202.295 17.4755 202.181 17.7434C202.068 18.0112 201.875 18.2402 201.628 18.4013C201.382 18.5623 201.091 18.6483 200.794 18.6483C200.398 18.644 200.019 18.4882 199.738 18.2142C199.457 17.9402 199.298 17.5699 199.293 17.1824ZM199.538 19.3648H202.068V27.5177H199.538V19.3648Z" fill="#B4B7C9"/>
<path d="M212.895 23.4411C212.924 23.9833 212.842 24.5257 212.655 25.0369C212.468 25.5482 212.179 26.0182 211.805 26.42C211.431 26.8219 210.98 27.1476 210.477 27.3783C209.973 27.6091 209.428 27.7403 208.873 27.7646C208.402 27.7953 207.929 27.7216 207.491 27.549C207.053 27.3764 206.661 27.1095 206.343 26.7682V30.7952H203.813V19.3646H206.343V20.1305C206.661 19.7901 207.054 19.5245 207.492 19.3533C207.93 19.1821 208.402 19.11 208.873 19.1423C209.426 19.1666 209.969 19.2971 210.47 19.5263C210.972 19.7555 211.422 20.079 211.796 20.4781C212.169 20.8773 212.459 21.3444 212.647 21.8528C212.836 22.3612 212.92 22.9009 212.895 23.4411ZM210.366 23.4411C210.356 23.0586 210.23 22.6875 210.005 22.3743C209.78 22.0611 209.466 21.8196 209.101 21.6804C208.736 21.541 208.337 21.5101 207.954 21.5912C207.571 21.6723 207.221 21.8621 206.948 22.1365C206.675 22.411 206.491 22.7581 206.42 23.1342C206.348 23.5104 206.391 23.8988 206.545 24.251C206.698 24.603 206.954 24.9031 207.281 25.1136C207.609 25.3241 207.992 25.4355 208.384 25.434C208.652 25.4452 208.92 25.4008 209.169 25.3038C209.419 25.2067 209.645 25.0593 209.832 24.8712C210.019 24.683 210.163 24.4582 210.255 24.2118C210.347 23.9654 210.385 23.7027 210.366 23.4411Z" fill="#B4B7C9"/>
<path d="M220.595 25.0717C220.595 26.9493 218.908 27.7481 217.12 27.7481C216.391 27.8122 215.659 27.6613 215.019 27.3148C214.378 26.9683 213.859 26.4423 213.528 25.8046L215.704 24.6023C215.79 24.8961 215.977 25.1521 216.233 25.3275C216.49 25.503 216.8 25.587 217.112 25.5658C217.711 25.5658 218.014 25.3846 218.014 25.0552C218.014 24.1576 213.908 24.6352 213.908 21.8105C213.908 20.0317 215.442 19.1423 217.179 19.1423C217.84 19.1134 218.496 19.2597 219.078 19.5656C219.66 19.8716 220.146 20.3258 220.485 20.8799L218.309 21.9999C218.213 21.7874 218.056 21.6068 217.857 21.4796C217.658 21.3524 217.426 21.2843 217.188 21.2834C216.749 21.2834 216.488 21.4481 216.488 21.7364C216.488 22.6752 220.595 22.0576 220.595 25.0717Z" fill="#B4B7C9"/>
<path d="M229.761 19.3647V27.5177H227.231V26.7518C226.944 27.0909 226.579 27.3591 226.166 27.5351C225.753 27.7111 225.304 27.7897 224.853 27.7647C223.167 27.7647 221.725 26.5871 221.725 24.3883V19.3647H224.255V24.0177C224.234 24.2122 224.258 24.4086 224.324 24.5934C224.39 24.7781 224.495 24.9468 224.633 25.0878C224.772 25.2287 224.941 25.3385 225.127 25.4098C225.314 25.4809 225.514 25.5117 225.714 25.5C226.624 25.5 227.265 24.973 227.265 23.853V19.3647H229.761Z" fill="#B4B7C9"/>
<path d="M244.097 22.5107V27.5177H241.567V22.7248C241.567 21.9012 241.171 21.3907 240.37 21.3907C239.569 21.3907 239.063 21.9589 239.063 22.9224V27.5177H236.533V22.7248C236.533 21.9012 236.137 21.3907 235.335 21.3907C234.534 21.3907 234.028 21.9589 234.028 22.9224V27.5177H231.499V19.3648H234.028V20.1142C234.291 19.7831 234.632 19.5209 235.024 19.3513C235.416 19.1816 235.845 19.1098 236.272 19.1424C236.699 19.1206 237.126 19.2079 237.509 19.3956C237.891 19.5833 238.218 19.865 238.456 20.213C238.734 19.8493 239.102 19.5604 239.525 19.3733C239.947 19.186 240.413 19.1066 240.876 19.1424C242.849 19.1424 244.097 20.4765 244.097 22.5107Z" fill="#B4B7C9"/>
<path d="M246.222 19.3154C247.247 19.3154 248.077 18.5042 248.077 17.5037C248.077 16.5031 247.247 15.6919 246.222 15.6919C245.198 15.6919 244.367 16.5031 244.367 17.5037C244.367 18.5042 245.198 19.3154 246.222 19.3154Z" fill="#B4B7C9"/>
<path d="M292.095 20.697C291.789 21.002 291.555 21.3702 291.409 21.7751C291.263 22.1802 291.209 22.6121 291.251 23.0402L291.237 23.0258C291.279 23.5297 291.211 24.0367 291.036 24.5117C290.86 24.9866 290.583 25.4178 290.222 25.7754C289.861 26.133 289.426 26.4082 288.947 26.5818C288.468 26.7555 287.956 26.8235 287.448 26.781L287.462 26.7954C286.854 26.7393 286.243 26.8704 285.713 27.171C285.183 27.4715 284.759 27.9268 284.5 28.4748C284.24 29.0228 284.158 29.6367 284.263 30.233C284.369 30.8293 284.657 31.3788 285.089 31.8066C285.521 32.2345 286.076 32.5198 286.677 32.6238C287.279 32.7278 287.898 32.6452 288.451 32.3875C289.004 32.1298 289.463 31.7094 289.765 31.1837C290.068 30.6579 290.2 30.0525 290.143 29.4498L290.158 29.4642C290.115 28.9603 290.184 28.4532 290.359 27.9782C290.534 27.5034 290.812 27.0721 291.173 26.7145C291.533 26.357 291.969 26.0817 292.448 25.9081C292.927 25.7344 293.438 25.6664 293.947 25.709L293.932 25.6946C294.428 25.7388 294.928 25.6581 295.385 25.4598C295.842 25.2616 296.241 24.9522 296.545 24.5605C296.849 24.1687 297.049 23.7071 297.125 23.2186C297.201 22.7301 297.152 22.2304 296.982 21.7658C296.811 21.3012 296.525 20.8868 296.15 20.561C295.775 20.2351 295.323 20.0084 294.836 19.9018C294.349 19.7953 293.842 19.8122 293.364 19.9512C292.885 20.0902 292.45 20.3467 292.098 20.697H292.095Z" fill="#B4B7C9"/>
<path d="M286.141 24.9088L286.126 24.8944C286.558 24.9376 286.994 24.885 287.403 24.7405C287.812 24.596 288.184 24.3633 288.491 24.0591C288.798 23.7548 289.033 23.3867 289.179 22.9813C289.326 22.576 289.379 22.1436 289.336 21.7152L289.351 21.7296C289.308 21.2257 289.377 20.7187 289.552 20.2437C289.727 19.7688 290.005 19.3376 290.366 18.98C290.726 18.6224 291.161 18.3472 291.641 18.1736C292.12 17.9999 292.631 17.9319 293.14 17.9744L293.124 17.96C293.733 18.0167 294.344 17.8859 294.874 17.5857C295.405 17.2855 295.829 16.8304 296.088 16.2825C296.348 15.7346 296.431 15.1206 296.326 14.5242C296.221 13.9278 295.933 13.3781 295.501 12.9499C295.069 12.5218 294.515 12.2362 293.913 12.132C293.311 12.0278 292.692 12.1102 292.139 12.3678C291.586 12.6254 291.127 13.0458 290.824 13.5715C290.521 14.0973 290.389 14.7029 290.446 15.3056L290.432 15.2904C290.475 15.7944 290.406 16.3015 290.231 16.7765C290.056 17.2515 289.778 17.6828 289.418 18.0404C289.057 18.398 288.622 18.6732 288.142 18.8468C287.663 19.0204 287.151 19.0883 286.643 19.0456L286.658 19.0608C286.226 19.0177 285.789 19.0703 285.38 19.2148C284.971 19.3592 284.599 19.592 284.292 19.8962C283.985 20.2004 283.75 20.5686 283.604 20.974C283.458 21.3793 283.404 21.8117 283.448 22.24L283.433 22.2256C283.476 22.7295 283.407 23.2365 283.232 23.7114C283.057 24.1862 282.779 24.6175 282.418 24.975C282.057 25.3325 281.622 25.6077 281.143 25.7815C280.664 25.9552 280.153 26.0232 279.644 25.9808L279.659 25.9952C279.051 25.9386 278.44 26.0693 277.909 26.3696C277.379 26.6698 276.955 27.1248 276.695 27.6728C276.435 28.2207 276.352 28.8347 276.457 29.4311C276.562 30.0275 276.85 30.5772 277.282 31.0053C277.714 31.4335 278.269 31.7191 278.87 31.8232C279.472 31.9274 280.092 31.8451 280.644 31.5875C281.197 31.3299 281.656 30.9096 281.959 30.3838C282.262 29.858 282.394 29.2524 282.337 28.6496L282.352 28.664C282.309 28.1601 282.378 27.6531 282.553 27.1781C282.728 26.7032 283.006 26.272 283.367 25.9144C283.728 25.5568 284.163 25.2816 284.642 25.108C285.121 24.9343 285.633 24.8663 286.141 24.9088Z" fill="#B4B7C9"/>
<path d="M280.732 23.3032C281.038 22.9983 281.272 22.6301 281.418 22.2251C281.563 21.82 281.617 21.388 281.575 20.96L281.59 20.9744C281.547 20.4704 281.616 19.9632 281.791 19.4881C281.967 19.0131 282.245 18.5817 282.605 18.2241C282.966 17.8665 283.402 17.5914 283.881 17.4178C284.36 17.2442 284.872 17.1765 285.381 17.2192L285.365 17.2048C285.973 17.2613 286.584 17.1305 287.114 16.8303C287.645 16.5301 288.068 16.0752 288.328 15.5274C288.588 14.9797 288.671 14.3659 288.566 13.7697C288.461 13.1735 288.173 12.624 287.741 12.196C287.309 11.7681 286.755 11.4826 286.153 11.3784C285.552 11.2742 284.932 11.3565 284.38 11.6139C283.827 11.8714 283.368 12.2915 283.065 12.817C282.762 13.3425 282.63 13.9479 282.687 14.5504L282.673 14.536C282.716 15.0399 282.647 15.547 282.472 16.0219C282.297 16.4968 282.019 16.9281 281.658 17.2857C281.297 17.6433 280.862 17.9185 280.383 18.0921C279.904 18.2658 279.392 18.3338 278.884 18.2912L278.899 18.3056C278.402 18.2615 277.902 18.3424 277.445 18.5407C276.988 18.739 276.589 19.0484 276.285 19.4403C275.981 19.832 275.782 20.2936 275.706 20.7821C275.629 21.2707 275.679 21.7704 275.849 22.2348C276.02 22.6994 276.306 23.1137 276.681 23.4395C277.056 23.7653 277.508 23.992 277.995 24.0985C278.482 24.205 278.989 24.188 279.467 24.049C279.946 23.91 280.381 23.6535 280.733 23.3032H280.732Z" fill="#B4B7C9"/>
<path d="M305.734 15.324H308.132V26.8864H305.734V15.324Z" fill="#B4B7C9"/>
<path d="M309.489 22.9273C309.486 22.0964 309.732 21.2831 310.195 20.5906C310.658 19.8982 311.318 19.3575 312.092 19.0373C312.866 18.717 313.718 18.6314 314.54 18.7915C315.363 18.9516 316.119 19.35 316.713 19.9364C317.307 20.5227 317.712 21.2706 317.877 22.0854C318.042 22.9001 317.959 23.745 317.639 24.513C317.319 25.2809 316.776 25.9375 316.079 26.3994C315.382 26.8614 314.563 27.1081 313.724 27.1081C313.168 27.1144 312.616 27.0106 312.1 26.803C311.585 26.5953 311.116 26.2878 310.722 25.8986C310.327 25.5094 310.015 25.0461 309.804 24.5359C309.592 24.0258 309.485 23.4789 309.489 22.9273ZM315.562 22.9273C315.552 22.5691 315.436 22.2218 315.228 21.9288C315.02 21.6358 314.729 21.4101 314.393 21.2799C314.056 21.1497 313.688 21.1207 313.335 21.1967C312.981 21.2727 312.658 21.4502 312.406 21.707C312.154 21.9638 311.984 22.2886 311.917 22.6408C311.851 22.9929 311.89 23.3567 312.031 23.6868C312.171 24.0169 312.407 24.2985 312.708 24.4965C313.009 24.6945 313.363 24.8001 313.724 24.8001C313.972 24.8066 314.218 24.7622 314.448 24.6698C314.677 24.5773 314.885 24.4387 315.057 24.2628C315.23 24.0868 315.364 23.8773 315.451 23.6474C315.538 23.4176 315.576 23.1724 315.562 22.9273Z" fill="#B4B7C9"/>
<path d="M327.514 18.9671V26.4871C327.514 29.1479 325.42 30.2727 323.295 30.2727C322.547 30.3283 321.797 30.1784 321.129 29.8398C320.461 29.5011 319.9 28.9866 319.508 28.3527L321.553 27.1807C321.718 27.5111 321.981 27.7837 322.306 27.962C322.632 28.1403 323.005 28.2158 323.375 28.1783C323.611 28.2108 323.852 28.1902 324.079 28.1179C324.307 28.0457 324.515 27.9237 324.688 27.7611C324.861 27.5983 324.996 27.3991 325.081 27.178C325.166 26.957 325.2 26.7198 325.18 26.4839V25.7599C324.9 26.1003 324.542 26.3708 324.137 26.5496C323.732 26.7284 323.29 26.8106 322.847 26.7895C321.792 26.7566 320.793 26.3183 320.059 25.5675C319.324 24.8167 318.914 23.8122 318.914 22.7667C318.914 21.7213 319.324 20.7168 320.059 19.966C320.793 19.2151 321.792 18.7769 322.847 18.7439C323.29 18.7229 323.732 18.8051 324.137 18.9839C324.542 19.1627 324.9 19.4331 325.18 19.7735V18.9655L327.514 18.9671ZM325.181 22.7679C325.197 22.3851 325.097 22.0061 324.894 21.6799C324.691 21.3537 324.394 21.0952 324.042 20.9377C323.689 20.7801 323.297 20.7307 322.916 20.7959C322.535 20.861 322.183 21.0376 321.904 21.3031C321.625 21.5686 321.433 21.9107 321.351 22.2854C321.27 22.6601 321.304 23.0503 321.449 23.4058C321.594 23.7612 321.842 24.0657 322.163 24.2799C322.483 24.4942 322.861 24.6084 323.248 24.6079C323.5 24.6254 323.753 24.5903 323.99 24.5051C324.227 24.4198 324.444 24.2861 324.626 24.1128C324.808 23.9395 324.952 23.7303 325.047 23.4986C325.143 23.267 325.188 23.0181 325.181 22.7679Z" fill="#B4B7C9"/>
<path d="M328.871 22.9273C328.868 22.0964 329.113 21.2831 329.577 20.5906C330.04 19.8982 330.7 19.3575 331.474 19.0373C332.247 18.717 333.099 18.6314 333.922 18.7915C334.745 18.9516 335.501 19.35 336.095 19.9364C336.689 20.5227 337.094 21.2706 337.259 22.0854C337.424 22.9001 337.341 23.745 337.021 24.513C336.701 25.2809 336.158 25.9375 335.461 26.3994C334.764 26.8614 333.945 27.1081 333.106 27.1081C332.55 27.1144 331.998 27.0106 331.482 26.803C330.966 26.5953 330.498 26.2878 330.104 25.8986C329.709 25.5094 329.397 25.0461 329.186 24.5359C328.974 24.0258 328.867 23.4789 328.871 22.9273ZM334.944 22.9273C334.934 22.5691 334.818 22.2218 334.61 21.9288C334.402 21.6358 334.111 21.4101 333.774 21.2799C333.438 21.1497 333.07 21.1207 332.716 21.1967C332.363 21.2727 332.04 21.4502 331.788 21.707C331.536 21.9638 331.366 22.2886 331.299 22.6408C331.232 22.9929 331.272 23.3567 331.412 23.6868C331.553 24.0169 331.789 24.2985 332.09 24.4965C332.391 24.6945 332.745 24.8001 333.106 24.8001C333.354 24.8066 333.6 24.7622 333.829 24.6698C334.059 24.5773 334.267 24.4387 334.439 24.2628C334.612 24.0868 334.746 23.8773 334.833 23.6474C334.92 23.4176 334.958 23.1724 334.944 22.9273Z" fill="#B4B7C9"/>
<path d="M338.459 16.8448C338.459 16.5628 338.544 16.2872 338.702 16.0528C338.86 15.8183 339.084 15.6356 339.347 15.5277C339.61 15.4198 339.899 15.3916 340.178 15.4466C340.457 15.5016 340.714 15.6374 340.915 15.8367C341.116 16.0361 341.253 16.2901 341.308 16.5667C341.364 16.8432 341.335 17.1298 341.226 17.3903C341.118 17.6508 340.933 17.8735 340.697 18.0302C340.46 18.1868 340.182 18.2704 339.898 18.2704C339.517 18.2666 339.154 18.1153 338.885 17.8487C338.616 17.5822 338.463 17.2217 338.459 16.8448ZM338.701 18.9672H341.099V26.8872H338.698L338.701 18.9672Z" fill="#B4B7C9"/>
<path d="M351.45 22.9272C351.478 23.4507 351.401 23.9743 351.224 24.4682C351.046 24.962 350.773 25.4163 350.418 25.8048C350.063 26.1933 349.634 26.5085 349.155 26.7322C348.677 26.9558 348.159 27.0835 347.631 27.108C347.186 27.132 346.742 27.0578 346.331 26.8907C345.919 26.7235 345.55 26.4676 345.25 26.1416V30.0544H342.853V18.9672H345.25V19.7112C345.55 19.3855 345.919 19.1298 346.331 18.9628C346.743 18.7958 347.187 18.7216 347.631 18.7456C348.159 18.77 348.677 18.8977 349.156 19.1214C349.634 19.3451 350.063 19.6603 350.418 20.0489C350.773 20.4375 351.047 20.8919 351.224 21.3859C351.401 21.8799 351.478 22.4037 351.45 22.9272ZM349.053 22.9272C349.044 22.5566 348.924 22.1969 348.709 21.8931C348.495 21.5895 348.195 21.3552 347.846 21.2199C347.498 21.0844 347.117 21.0538 346.752 21.1319C346.386 21.2099 346.052 21.3931 345.79 21.6585C345.529 21.924 345.353 22.2599 345.283 22.6243C345.214 22.9886 345.254 23.3651 345.4 23.7067C345.545 24.0484 345.789 24.3399 346.101 24.545C346.412 24.7499 346.778 24.8593 347.152 24.8592C347.409 24.8706 347.665 24.8279 347.904 24.7342C348.143 24.6405 348.36 24.4977 348.539 24.3153C348.719 24.1328 348.857 23.9149 348.946 23.6757C349.034 23.4365 349.071 23.1814 349.053 22.9272Z" fill="#B4B7C9"/>
<path d="M358.848 24.5104C358.848 26.332 357.25 27.108 355.525 27.108C354.827 27.1706 354.127 27.0245 353.515 26.6884C352.902 26.3524 352.405 25.842 352.089 25.2232L354.165 24.0512C354.249 24.3372 354.43 24.5861 354.677 24.7561C354.923 24.9262 355.222 25.0072 355.521 24.9856C356.096 24.9856 356.384 24.8112 356.384 24.4952C356.384 23.6232 352.453 24.0832 352.453 21.3432C352.453 19.616 353.923 18.7456 355.585 18.7456C356.21 18.726 356.828 18.8729 357.376 19.1709C357.924 19.469 358.382 19.9072 358.701 20.44L356.655 21.5328C356.566 21.3254 356.417 21.1487 356.226 21.0248C356.036 20.9008 355.813 20.8352 355.585 20.836C355.169 20.836 354.914 20.996 354.914 21.2792C354.917 22.1824 358.848 21.58 358.848 24.5104Z" fill="#B4B7C9"/>
<path d="M367.604 18.9673V26.8873H365.207V26.1425C364.93 26.4711 364.579 26.7301 364.182 26.8981C363.785 27.0661 363.354 27.1383 362.923 27.1089C361.309 27.1089 359.937 25.9689 359.937 23.8289V18.9673H362.334V23.4809C362.314 23.6695 362.335 23.8602 362.397 24.0397C362.459 24.2192 362.56 24.3832 362.692 24.5202C362.824 24.6573 362.985 24.7641 363.163 24.8333C363.341 24.9025 363.532 24.9324 363.724 24.9209C364.603 24.9209 365.21 24.4145 365.21 23.2897V18.9697L367.604 18.9673Z" fill="#B4B7C9"/>
<path d="M381.35 22.0239V26.8863H378.953V22.2295C378.953 21.4375 378.569 20.9311 377.803 20.9311C377.004 20.9311 376.556 21.4855 376.556 22.4199V26.8863H374.159V22.2295C374.159 21.4375 373.776 20.9311 373.008 20.9311C372.209 20.9311 371.762 21.4855 371.762 22.4199V26.8863H369.365V18.9663H371.762V19.6943C372.011 19.3713 372.337 19.1152 372.71 18.9493C373.085 18.7834 373.495 18.7131 373.903 18.7447C374.313 18.7248 374.722 18.8106 375.089 18.9937C375.455 19.1768 375.768 19.451 375.996 19.7895C376.262 19.4353 376.614 19.1537 377.019 18.971C377.424 18.7883 377.87 18.7104 378.314 18.7447C380.148 18.7455 381.35 20.0439 381.35 22.0239Z" fill="#B4B7C9"/>
<path d="M383.378 18.9182C384.36 18.9182 385.157 18.1288 385.157 17.155C385.157 16.1813 384.36 15.3918 383.378 15.3918C382.395 15.3918 381.599 16.1813 381.599 17.155C381.599 18.1288 382.395 18.9182 383.378 18.9182Z" fill="#B4B7C9"/>
<path d="M444.599 16.8112H447.333V27.425H444.599V16.8112ZM448.418 23.4175C448.418 20.7925 450.094 19.2262 452.683 19.2262C455.271 19.2262 456.947 20.7925 456.947 23.4175C456.947 26.0425 455.307 27.6175 452.683 27.6175C450.058 27.6175 448.418 26.0862 448.418 23.4175ZM454.204 23.4175C454.204 21.9737 453.612 21.125 452.683 21.125C451.753 21.125 451.17 22 451.17 23.4175C451.17 24.835 451.744 25.6925 452.683 25.6925C453.621 25.6925 454.204 24.8875 454.204 23.4262V23.4175ZM457.977 27.9412H460.602C460.727 28.2077 460.938 28.4283 461.204 28.5702C461.47 28.712 461.776 28.7677 462.078 28.7287C463.117 28.7287 463.664 28.1862 463.664 27.3987V25.9287H463.609C463.391 26.3793 463.038 26.7567 462.594 27.0126C462.151 27.2684 461.638 27.3907 461.121 27.3637C459.125 27.3637 457.804 25.9025 457.804 23.3912C457.804 20.88 459.062 19.2962 461.158 19.2962C461.69 19.2762 462.217 19.413 462.666 19.6881C463.116 19.9634 463.467 20.364 463.673 20.8362V19.375H466.407V27.3375C466.407 29.2537 464.648 30.4437 462.051 30.4437C459.636 30.4437 458.132 29.4025 457.977 27.95V27.9412ZM463.673 23.4087C463.673 22.1312 463.062 21.3262 462.096 21.3262C461.13 21.3262 460.538 22.1225 460.538 23.4087C460.538 24.695 461.121 25.4212 462.096 25.4212C463.071 25.4212 463.673 24.7125 463.673 23.4175V23.4087ZM467.436 23.4087C467.436 20.7837 469.113 19.2175 471.701 19.2175C474.289 19.2175 475.975 20.7837 475.975 23.4087C475.975 26.0337 474.335 27.6087 471.701 27.6087C469.068 27.6087 467.436 26.0862 467.436 23.4175V23.4087ZM473.223 23.4087C473.223 21.965 472.631 21.1162 471.701 21.1162C470.772 21.1162 470.234 22 470.234 23.4262C470.234 24.8525 470.808 25.7012 471.738 25.7012C472.667 25.7012 473.223 24.8875 473.223 23.4262V23.4087ZM477.014 17.4675C477.007 17.2024 477.082 16.9413 477.229 16.7173C477.377 16.4932 477.59 16.3162 477.843 16.2088C478.095 16.1014 478.375 16.0684 478.647 16.1139C478.919 16.1594 479.171 16.2815 479.371 16.4646C479.57 16.6478 479.709 16.8837 479.769 17.1425C479.829 17.4013 479.807 17.6714 479.707 17.9185C479.607 18.1655 479.433 18.3784 479.206 18.5303C478.98 18.6821 478.712 18.766 478.436 18.7712C478.253 18.7833 478.069 18.7589 477.896 18.6996C477.723 18.6402 477.565 18.5473 477.432 18.4265C477.298 18.3057 477.192 18.1597 477.12 17.9976C477.049 17.8357 477.012 17.6611 477.014 17.485V17.4675ZM477.014 19.3925H479.748V27.425H477.014V19.3925ZM489.672 23.4087C489.672 26.0337 488.46 27.53 486.382 27.53C485.849 27.5628 485.319 27.4378 484.862 27.1718C484.406 26.9057 484.046 26.5115 483.83 26.0425H483.776V29.9975H481.042V19.375H483.776V20.81H483.83C484.036 20.3332 484.389 19.9288 484.842 19.6517C485.296 19.3745 485.827 19.2382 486.364 19.2612C488.46 19.2962 489.708 20.8012 489.708 23.4262L489.672 23.4087ZM486.938 23.4087C486.938 22.1312 486.327 21.3175 485.37 21.3175C484.414 21.3175 483.803 22.14 483.794 23.4087C483.785 24.6775 484.414 25.4912 485.37 25.4912C486.327 25.4912 486.938 24.695 486.938 23.4262V23.4087ZM494.365 19.2087C496.634 19.2087 498.01 20.2412 498.074 21.895H495.586C495.586 21.3262 495.094 20.9675 494.338 20.9675C493.581 20.9675 493.244 21.2475 493.244 21.6587C493.244 22.07 493.545 22.2012 494.155 22.3237L495.905 22.665C497.573 23.0062 498.283 23.6537 498.283 24.87C498.283 26.5325 496.707 27.6 494.383 27.6C492.059 27.6 490.538 26.5325 490.419 24.8962H493.053C493.135 25.4912 493.627 25.8412 494.429 25.8412C495.231 25.8412 495.595 25.5875 495.595 25.1675C495.595 24.7475 495.34 24.66 494.684 24.5287L493.107 24.205C491.476 23.8812 490.62 23.05 490.62 21.825C490.638 20.25 492.105 19.2262 494.365 19.2262V19.2087ZM507.405 27.4075H504.772V25.9112H504.717C504.572 26.4136 504.253 26.8533 503.812 27.1573C503.371 27.4613 502.835 27.6114 502.293 27.5825C501.878 27.6051 501.462 27.542 501.074 27.3972C500.687 27.2523 500.336 27.0294 500.046 26.7432C499.755 26.4571 499.532 26.1143 499.392 25.7383C499.251 25.3623 499.197 24.9618 499.231 24.5637V19.375H501.965V23.96C501.965 24.9137 502.475 25.4212 503.323 25.4212C503.522 25.4216 503.718 25.3812 503.9 25.3028C504.08 25.2243 504.242 25.1095 504.374 24.9661C504.504 24.8227 504.602 24.6541 504.66 24.4716C504.717 24.289 504.735 24.0967 504.708 23.9075V19.375H507.442L507.405 27.4075ZM508.727 19.375H511.37V20.9237H511.424C511.569 20.428 511.882 19.9925 512.312 19.6853C512.742 19.3782 513.267 19.2167 513.803 19.2262C514.349 19.1843 514.89 19.341 515.321 19.6653C515.751 19.9896 516.039 20.4575 516.127 20.9762H516.181C516.346 20.452 516.689 19.9956 517.154 19.6788C517.619 19.3619 518.181 19.2027 518.751 19.2262C519.123 19.2142 519.493 19.2775 519.837 19.4119C520.183 19.5462 520.493 19.7488 520.751 20.0062C521.009 20.2637 521.208 20.5704 521.335 20.9063C521.46 21.2422 521.512 21.6 521.485 21.9562V27.425H518.751V22.6562C518.751 21.7812 518.341 21.3787 517.575 21.3787C517.405 21.3773 517.236 21.4111 517.08 21.4778C516.924 21.5445 516.784 21.6425 516.671 21.7652C516.558 21.888 516.474 22.0325 516.424 22.1892C516.373 22.346 516.36 22.5112 516.382 22.6737V27.425H513.785V22.6212C513.785 21.8162 513.374 21.3787 512.627 21.3787C512.455 21.3788 512.284 21.414 512.127 21.482C511.969 21.5501 511.828 21.6494 511.714 21.7734C511.599 21.8973 511.514 22.0433 511.462 22.2016C511.411 22.3598 511.394 22.5266 511.415 22.6912V27.425H508.681L508.727 19.375Z" fill="#B4B7C9"/>
<path d="M436.954 17.2925C436.49 16.2743 435.876 15.3255 435.131 14.475C434.03 13.1803 432.655 12.1242 431.098 11.3763C429.541 10.6284 427.837 10.2055 426.097 10.1356C424.358 10.0657 422.623 10.3503 421.006 10.9706C419.389 11.591 417.928 12.5331 416.718 13.7349C415.508 14.9367 414.576 16.3709 413.985 17.9433C413.394 19.5156 413.156 21.1903 413.287 22.8572C413.418 24.5241 413.916 26.1454 414.747 27.6144C415.578 29.0834 416.723 30.3668 418.108 31.38C418.997 32.0432 419.978 32.5823 421.024 32.9813C422.491 33.5583 424.06 33.8554 425.645 33.8563C428.915 33.8494 432.05 32.5974 434.361 30.3749C436.673 28.1524 437.972 25.1408 437.974 22C437.977 20.38 437.629 18.7771 436.954 17.2925ZM425.635 12.5413C427.058 12.5411 428.464 12.8398 429.754 13.4163C429.44 13.5468 429.109 13.638 428.77 13.6875C427.655 13.8425 426.623 14.3395 425.826 15.1043C425.029 15.8691 424.512 16.8608 424.35 17.9313C424.28 18.5316 423.995 19.0901 423.545 19.5126C423.095 19.935 422.508 20.1954 421.881 20.25C420.766 20.405 419.733 20.902 418.937 21.6668C418.14 22.4317 417.623 23.4233 417.461 24.4938C417.406 25.0646 417.153 25.6011 416.741 26.0163C416.031 24.5754 415.712 22.9854 415.814 21.3943C415.916 19.8032 416.435 18.2626 417.323 16.916C418.212 15.5695 419.441 14.4606 420.896 13.6926C422.351 12.9247 423.984 12.5226 425.645 12.5238L425.635 12.5413ZM418.099 28.125C418.208 28.0288 418.318 27.9413 418.427 27.8363C419.238 27.0816 419.758 26.0853 419.903 25.01C419.962 24.4056 420.243 23.841 420.696 23.4175C421.132 22.982 421.719 22.7143 422.346 22.665C423.461 22.5101 424.493 22.0131 425.29 21.2482C426.086 20.4834 426.604 19.4918 426.765 18.4213C426.805 17.7891 427.087 17.1935 427.558 16.75C428.005 16.3229 428.597 16.065 429.226 16.0238C430.25 15.8885 431.205 15.4513 431.96 14.7725C432.819 15.4568 433.547 16.2801 434.11 17.205C434.076 17.2499 434.036 17.291 433.992 17.3275C433.557 17.767 432.971 18.0405 432.342 18.0975C431.226 18.2498 430.192 18.7459 429.395 19.5112C428.598 20.2765 428.081 21.2697 427.923 22.3413C427.858 22.9436 427.579 23.5062 427.133 23.9335C426.686 24.361 426.099 24.6269 425.471 24.6863C424.353 24.84 423.317 25.3361 422.515 26.1005C421.714 26.8651 421.191 27.8574 421.024 28.93C420.975 29.3576 420.822 29.7683 420.578 30.1288C419.643 29.5957 418.805 28.9188 418.099 28.125ZM425.635 31.5025C424.711 31.5035 423.79 31.3798 422.902 31.135C423.206 30.5908 423.403 29.9976 423.485 29.385C423.549 28.784 423.826 28.2225 424.271 27.7953C424.716 27.3682 425.301 27.1014 425.927 27.04C427.044 26.8868 428.078 26.3906 428.877 25.6256C429.675 24.8607 430.194 23.868 430.356 22.7963C430.42 22.1952 430.698 21.6338 431.142 21.2066C431.587 20.7794 432.172 20.5126 432.798 20.4513C433.638 20.3464 434.439 20.046 435.131 19.5763C435.515 20.9744 435.561 22.4385 435.264 23.8562C434.967 25.2738 434.336 26.6075 433.42 27.7547C432.503 28.9019 431.325 29.8322 429.975 30.4743C428.626 31.1164 427.141 31.4532 425.635 31.4588V31.5025Z" fill="#B4B7C9"/>
</svg>
